<svg width="235" height="63" viewBox="0 0 235 63" fill="none" xmlns="http://www.w3.org/2000/svg">
<path d="M184.8 15.9003C186.346 15.9003 187.6 14.6467 187.6 13.1003C187.6 11.5539 186.346 10.3003 184.8 10.3003C183.254 10.3003 182 11.5539 182 13.1003C182 14.6467 183.254 15.9003 184.8 15.9003Z" fill="#7899B2"/>
<path d="M72.8001 29.0001C72.8001 29.2001 69.5001 29.1001 69.5001 29.0001C69.5001 28.9001 68.8001 26.2001 68.8001 26.2001C68.3001 25.7001 67.6001 25.3001 66.8001 25.0001C66.0001 24.7001 65.1001 24.5001 64.0001 24.5001C62.4001 24.5001 61.3001 24.8001 60.5001 25.5001C59.7001 26.2001 59.4001 27.0001 59.4001 27.9001C59.4001 28.8001 59.7001 29.6001 60.4001 30.1001C61.1001 30.6001 62.4001 31.1001 64.5001 31.5001C67.5001 32.1001 69.8001 33.0001 71.3001 34.1001C72.8001 35.2001 73.5001 36.7001 73.5001 38.5001C73.5001 40.6001 72.6001 42.3001 70.9001 43.6001C69.2001 44.9001 66.9001 45.5001 64.1001 45.5001C62.3001 45.5001 60.6001 45.3001 59.2001 44.9001C57.7001 44.5001 56.4001 43.9001 55.3001 43.1001C55.3001 43.1001 55.3001 37.8001 55.3001 37.7001C55.3001 37.6001 58.6001 37.6001 58.6001 37.7001C58.6001 37.8001 59.4001 40.9001 59.4001 40.9001C59.9001 41.3001 60.6001 41.7001 61.5001 41.9001C62.4001 42.1001 63.3001 42.2001 64.2001 42.2001C65.8001 42.2001 67.0001 41.9001 67.9001 41.3001C68.8001 40.7001 69.2001 39.9001 69.2001 38.9001C69.2001 38.0001 68.8001 37.2001 68.1001 36.6001C67.4001 36.0001 66.0001 35.5001 63.9001 35.0001C61.0001 34.4001 58.8001 33.5001 57.3001 32.4001C55.8001 31.3001 55.1001 29.9001 55.1001 28.0001C55.1001 26.1001 55.9001 24.4001 57.6001 23.1001C59.3001 21.7001 61.4001 21.1001 64.1001 21.1001C65.9001 21.1001 67.6001 21.3001 69.0001 21.8001C70.4001 22.3001 71.7001 22.9001 72.6001 23.7001C72.5001 23.8001 72.8001 28.9001 72.8001 29.0001Z" fill="#7899B2"/>
<path d="M75.8999 33.2002C75.8999 29.7002 76.8999 26.8002 78.7999 24.6002C80.6999 22.3002 83.3999 21.2002 86.6999 21.2002C89.9999 21.2002 92.6999 22.3002 94.5999 24.6002C96.4999 26.9002 97.4999 29.7002 97.4999 33.3002V33.8002C97.4999 37.3002 96.4999 40.2002 94.5999 42.5002C92.6999 44.7002 89.9999 45.9002 86.6999 45.9002C83.3999 45.9002 80.6999 44.8002 78.7999 42.5002C76.8999 40.3002 75.8999 37.4002 75.8999 33.9002V33.2002ZM80.2999 33.7002C80.2999 36.2002 80.7999 38.3002 81.8999 39.9002C82.9999 41.5002 84.5999 42.3002 86.6999 42.3002C88.7999 42.3002 90.3999 41.5002 91.3999 39.9002C92.4999 38.3002 92.9999 36.2002 92.9999 33.7002V33.2002C92.9999 30.7002 92.4999 28.7002 91.3999 27.0002C90.2999 25.4002 88.6999 24.5002 86.5999 24.5002C84.4999 24.5002 82.9999 25.4002 81.8999 27.0002C80.7999 28.6002 80.2999 30.7002 80.2999 33.2002V33.7002Z" fill="#7899B2"/>
<path d="M110.8 42.3002C112.2 42.3002 113.5 41.9002 114.6 41.0002C116 40.0002 116.4 37.9002 116.4 37.8002C116.4 37.7002 120.1 37.7002 120.2 37.8002V37.9002C120.3 39.9002 119.4 41.8002 117.5 43.4002C115.6 45.0002 113.3 45.7002 110.8 45.7002C107.3 45.7002 104.6 44.6002 102.8 42.3002C101 40.1002 100 37.2002 100 33.9002V33.0002C100 29.6002 100.9 26.8002 102.8 24.6002C104.7 22.4002 107.3 21.2002 110.8 21.2002C112.7 21.2002 114.5 21.5002 116 22.1002C117.5 22.7002 118.8 23.6002 119.8 24.7002C119.8 24.7002 120 29.8002 120 29.9002C120 30.0002 116.5 30.0002 116.5 29.9002C116.5 29.8002 115.5 26.2002 115.5 26.2002C115 25.7002 114.3 25.3002 113.5 25.0002C112.7 24.7002 111.8 24.5002 110.7 24.5002C108.4 24.5002 106.8 25.3002 105.8 26.9002C104.8 28.5002 104.3 30.5002 104.3 32.9002V33.8002C104.3 36.2002 104.8 38.2002 105.8 39.8002C106.8 41.5002 108.4 42.3002 110.8 42.3002V42.3002Z" fill="#7899B2"/>
<path d="M122.8 24.4002C122.7 24.4002 122.7 21.6002 122.8 21.6002C122.9 21.6002 130.3 21.5002 130.4 21.6002C130.4 21.7002 130.4 24.7002 130.5 24.7002C130.7 24.6002 132.3 22.9002 133.3 22.2002C134.3 21.5002 135.5 21.2002 136.8 21.2002C137.1 21.2002 137.5 21.3002 137.9 21.3002C138.3 21.3002 138.6 21.4002 138.8 21.5002C139 21.6002 138.2 25.1002 138 25.1002C137.8 25.1002 136.6 25.0002 135.8 25.1002C135.4 25.1002 133.8 25.5002 132.9 26.0002C132.1 26.5002 131.3 27.2002 130.9 28.2002V41.8002C130.9 41.8002 134.4 42.4002 134.5 42.4002C134.6 42.4002 134.6 45.2002 134.5 45.2002C134.4 45.2002 122.9 45.2002 122.8 45.2002C122.7 45.2002 122.7 42.5002 122.8 42.4002C122.9 42.4002 126.4 41.8002 126.4 41.8002V25.0002C126.4 25.0002 122.9 24.4002 122.8 24.4002V24.4002Z" fill="#7899B2"/>
<path d="M155.5 45.2C155.4 44.6 155.3 44 155.2 43.5C155.1 43 155.1 42.5 155 42C154.1 43.1 153.1 44 151.8 44.7C150.5 45.4 149.2 45.8 147.7 45.8C145.2 45.8 143.3 45.2 142 44C140.7 42.8 140 41.1 140 38.9C140 36.7 140.9 34.9 142.8 33.7C144.7 32.5 147.2 31.9 150.4 31.9H154.9V29C154.9 27.6 154.5 26.5 153.6 25.7C152.7 24.9 151.5 24.5 149.9 24.5C148.8 24.5 147.8 24.6 147 24.9C146.2 25.2 145.5 25.6 145 26C145 26 144.6 28.4 144.5 28.5C144.4 28.6 141.1 28.6 141.1 28.5C141.1 28.4 141.1 23.9 141.1 23.9C142.2 23 143.5 22.4 145.1 21.8C146.7 21.3 148.3 21 150.2 21C152.9 21 155.1 21.7 156.8 23C158.5 24.4 159.3 26.3 159.3 28.9V40.3V41.2C159.3 41.5 159.3 41.8 159.4 42.1C159.4 42.1 161 42.3 161.2 42.3C161.4 42.3 161.3 45.1 161.2 45.1C161.2 45.2 155.5 45.2 155.5 45.2V45.2ZM148.5 42.1C149.9 42.1 151.3 41.8 152.5 41.1C153.7 40.4 154.6 39.6 155.1 38.6V34.7H150.4C148.6 34.7 147.2 35.1 146.1 35.9C145 36.7 144.5 37.7 144.5 38.9C144.5 39.9 144.8 40.7 145.5 41.3C146.2 41.8 147.2 42.1 148.5 42.1Z" fill="#7899B2"/>
<path d="M170.3 15.2002V21.6002C170.3 21.6002 174.8 21.6002 174.9 21.6002C175 21.6002 175 24.8002 174.8 24.8002C174.6 24.8002 170.3 24.8002 170.3 24.8002V39.2002C170.3 40.3002 170.5 41.1002 171 41.5002C171.5 42.0002 172.1 42.2002 172.9 42.2002C173.3 42.2002 173.7 42.2002 174.2 42.1002C174.7 42.0002 175.3 41.9002 175.4 41.9002C175.5 41.9002 176.1 44.8002 176 44.9002C175.9 45.0002 175 45.4002 174.2 45.5002C173.4 45.7002 172.6 45.7002 171.8 45.7002C170 45.7002 168.6 45.2002 167.6 44.1002C166.5 43.0002 166 41.4002 166 39.1002V24.8002C166 24.8002 162.3 24.8002 162.2 24.8002C162.1 24.8002 162.1 21.6002 162.2 21.6002C162.3 21.6002 166 21.6002 166 21.6002C166 21.6002 166 16.5002 166 16.3002C165.9 16.2002 170.3 15.0002 170.3 15.2002V15.2002Z" fill="#7899B2"/>
<path d="M178.9 42.5004C179 42.5004 182.5 41.9004 182.5 41.9004V25.0004C182.5 25.0004 179 24.4004 178.9 24.4004C178.8 24.4004 178.9 21.7004 178.9 21.6004C178.9 21.5004 186.9 21.5004 186.9 21.6004C186.9 21.7004 186.9 41.9004 186.9 41.9004C186.9 41.9004 190.4 42.5004 190.5 42.5004C190.6 42.5004 190.6 45.3004 190.5 45.3004C190.4 45.3004 178.9 45.3004 178.9 45.3004C178.8 45.2004 178.7 42.5004 178.9 42.5004Z" fill="#7899B2"/>
<path d="M199.9 24.4001C199.7 24.4001 197 24.7001 197 24.7001L201.9 38.3001C201.9 38.3001 202.3 39.7001 202.4 39.8001C202.4 39.9001 202.5 39.8001 202.5 39.8001L202.9 38.3001L207.7 24.8001C207.7 24.8001 204.9 24.4001 204.8 24.4001C204.7 24.4001 204.7 21.6001 204.8 21.6001C204.9 21.6001 214 21.6001 214.1 21.6001C214.2 21.6001 214.2 24.4001 214.1 24.4001C214 24.4001 212.1 24.7001 212.1 24.7001C212.1 24.7001 204.1 45.1001 204 45.2001C203.9 45.3001 200.7 45.4001 200.7 45.2001C200.6 45.0001 192.5 24.7001 192.5 24.7001C192.5 24.7001 190.6 24.4001 190.5 24.4001C190.4 24.4001 190.4 21.6001 190.5 21.6001C190.6 21.6001 199.7 21.6001 199.8 21.6001C200.1 21.6001 200.1 24.3001 199.9 24.4001V24.4001Z" fill="#7899B2"/>
<path d="M225 45.7001C221.6 45.7001 219 44.6001 217 42.4001C215 40.2001 214 37.4001 214 33.9001V32.9001C214 29.5001 215 26.7001 217.1 24.5001C219.2 22.3001 221.6 21.1001 224.3 21.1001C227.5 21.1001 230 22.1001 231.7 24.0001C233.4 25.9001 234.2 28.5001 234.2 31.7001V34.3001C234.2 34.4001 218.6 34.5001 218.6 34.5001L218.5 34.6001C218.5 36.9001 219.1 38.7001 220.3 40.1001C221.4 41.6001 223 42.2001 225 42.2001C226.5 42.2001 227.8 42.0001 228.9 41.6001C230 41.2001 231.7 40.1001 231.8 40.0001C231.9 39.9001 233.6 42.5001 233.4 42.6001C233.2 43.0001 231.6 44.2001 230 44.8001C228.7 45.4001 227 45.7001 225 45.7001V45.7001ZM224.3 24.5001C222.8 24.5001 221.6 25.1001 220.5 26.3001C219.5 27.5001 218.8 29.0001 218.6 30.9001L218.7 31.0001H229.8V30.4001C229.8 28.7001 229.3 27.3001 228.4 26.2001C227.5 25.1001 226.1 24.5001 224.3 24.5001V24.5001Z" fill="#7899B2"/>
<path d="M44.6 33.9002C44.5 33.9002 44.3 33.9002 44.2 33.9002L40.8 28.0002C41.2 27.5002 41.4 27.0002 41.4 26.3002C41.4 25.7002 41.2 25.1002 40.8 24.6002L44.2 18.7002H44.6C46.1 18.7002 47.4 17.5002 47.4 15.9002C47.4 14.3002 46.2 13.1002 44.6 13.1002C44.5 13.1002 44.3 13.1002 44.2 13.1002L40.8 7.2002C41.2 6.7002 41.4 6.1002 41.4 5.5002C41.4 4.0002 40.2 2.7002 38.7 2.7002C37.5 2.7002 36.5 3.4002 36.2 4.4002H29.3C28.9 3.4002 27.9 2.7002 26.7 2.7002C25.2 2.7002 23.9 3.9002 23.9 5.5002C23.9 6.1002 24.1 6.7002 24.5 7.2002L21.1 13.1002C21 13.1002 20.8 13.1002 20.7 13.1002C19.5 13.1002 18.6 13.8002 18.2 14.8002H11.3C10.9 13.8002 9.9 13.1002 8.7 13.1002C7.2 13.2002 6 14.4002 6 16.0002C6 16.6002 6.2 17.2002 6.6 17.7002L3.2 23.6002C3.1 23.6002 2.9 23.6002 2.8 23.6002C1.3 23.6002 0 24.8002 0 26.4002C0 27.9002 1.2 29.2002 2.8 29.2002H3.2L6.6 35.2002C6.2 35.4002 6 36.0002 6 36.7002C6 37.3002 6.2 37.9002 6.6 38.4002L3.2 44.3002C3.1 44.3002 2.9 44.3002 2.8 44.3002C1.2 44.3002 0 45.5002 0 47.0002C0 48.5002 1.2 49.8002 2.8 49.8002H3.2L6.6 55.8002C6.2 56.3002 6 56.8002 6 57.5002C6 59.0002 7.2 60.3002 8.7 60.3002C9.9 60.3002 10.8 59.6002 11.3 58.6002H18.2C18.6 59.6002 19.6 60.3002 20.7 60.3002C22.2 60.3002 23.5 59.1002 23.5 57.5002C23.5 56.9002 23.3 56.3002 22.9 55.8002L26.3 49.8002H26.7C27.9 49.8002 28.8 49.1002 29.2 48.1002H36.1C36.5 49.1002 37.5 49.8002 38.6 49.8002C40.1 49.8002 41.4 48.6002 41.4 47.0002C41.4 46.4002 41.2 45.8002 40.8 45.3002L44.2 39.3002H44.6C46.1 39.3002 47.4 38.1002 47.4 36.5002C47.4 35.2002 46.2 33.9002 44.6 33.9002V33.9002ZM38.7 44.3002C37.5 44.3002 36.5 45.0002 36.2 46.0002H29.3C28.9 45.0002 27.9 44.3002 26.8 44.3002C26.7 44.3002 26.5 44.3002 26.4 44.3002V44.2002L23 38.3002C23.4 37.8002 23.6 37.2002 23.6 36.6002C23.6 36.0002 23.4 35.4002 23 34.9002L26.4 28.9002H26.8C28 28.9002 28.9 28.2002 29.3 27.2002H36.2C36.6 28.2002 37.6 28.9002 38.7 28.9002H39.1L42.5 34.9002C42.1 35.4002 41.9 35.9002 41.9 36.6002C41.9 37.2002 42.1 37.8002 42.5 38.3002L39.1 44.2002C38.9 44.3002 38.8 44.3002 38.7 44.3002ZM20.7 54.7002C19.5 54.7002 18.6 55.4002 18.2 56.4002H11.3C10.9 55.4002 9.9 54.7002 8.7 54.7002C8.6 54.7002 8.4 54.7002 8.3 54.7002L4.9 48.8002C5.3 48.3002 5.5 47.7002 5.5 47.1002C5.5 46.5002 5.3 45.9002 4.9 45.4002L8.3 39.4002H8.7C9.9 39.4002 10.8 38.7002 11.3 37.7002H18.2C18.6 38.7002 19.6 39.4002 20.7 39.4002H21.1L24.5 45.4002C24.1 45.9002 23.9 46.4002 23.9 47.1002C23.9 47.7002 24.1 48.3002 24.5 48.8002L21.1 54.7002C21 54.7002 20.8 54.7002 20.7 54.7002ZM4.9 24.6002L8.3 18.6002H8.7C9.9 18.6002 10.8 17.9002 11.3 16.9002H18.2C18.6 17.9002 19.6 18.6002 20.7 18.6002H21.1L24.5 24.6002C24.1 25.1002 23.9 25.6002 23.9 26.3002C23.9 26.9002 24.1 27.5002 24.5 28.0002V28.1002L21.1 34.0002C21 34.0002 20.8 34.0002 20.7 34.0002C19.5 34.0002 18.6 34.7002 18.2 35.7002H11.3C10.9 34.7002 9.9 34.0002 8.7 34.0002C8.6 34.0002 8.4 34.0002 8.3 34.0002L4.9 28.0002C5.3 27.5002 5.5 27.0002 5.5 26.3002C5.5 25.7002 5.3 25.1002 4.9 24.6002ZM26.7 8.3002C27.9 8.3002 28.8 7.6002 29.2 6.6002H36.1C36.5 7.6002 37.5 8.3002 38.6 8.3002H39L42.4 14.2002C42 14.7002 41.8 15.3002 41.8 15.9002C41.8 16.5002 42 17.1002 42.4 17.6002L39 23.6002C38.9 23.6002 38.7 23.6002 38.6 23.6002C37.4 23.6002 36.4 24.3002 36.1 25.3002H29.2C28.8 24.3002 27.8 23.6002 26.7 23.6002C26.6 23.6002 26.4 23.6002 26.3 23.6002V23.5002L22.9 17.6002C23.3 17.1002 23.5 16.5002 23.5 15.9002C23.5 15.3002 23.3 14.7002 22.9 14.2002L26.3 8.3002H26.7Z" fill="#7899B2"/>
</svg>
