<?xml version="1.0" encoding="iso-8859-1"?>
<!-- Generator: Adobe Illustrator 16.0.0, SVG Export Plug-In . SVG Version: 6.00 Build 0)  -->
<!DOCTYPE svg PUBLIC "-//W3C//DTD SVG 1.1//EN" "http://www.w3.org/Graphics/SVG/1.1/DTD/svg11.dtd">
<svg version="1.1" id="Capa_1" xmlns="http://www.w3.org/2000/svg" xmlns:xlink="http://www.w3.org/1999/xlink" x="0px" y="0px"
	 width="31.818px" height="31.818px" viewBox="0 0 31.818 31.818" style="enable-background:new 0 0 31.818 31.818;"
	 xml:space="preserve">
<g>
	<g>
		<path d="M12.983,20.015c-0.477-1.461-0.369-3.447-0.214-4.771c1.054-0.909,1.723-2.255,1.723-3.758c0-2.743-2.226-4.97-4.97-4.97
			c-2.746,0-4.972,2.227-4.972,4.97c0,1.644,0.802,3.098,2.032,4.003c0.045,1.187-0.031,2.838-0.59,4.362
			c-0.913,2.488-3.631,4.842-4.209,5.324H0v2.803h19.043v-2.803H17.26C16.652,24.677,13.683,22.153,12.983,20.015z"/>
		<path d="M16.172,3.841v15.648h15.646V3.841H16.172z M31.124,18.795H16.867V4.539h14.256L31.124,18.795L31.124,18.795z"/>
		<circle cx="20.639" cy="8.108" r="1.573"/>
		<circle cx="23.861" cy="11.666" r="1.573"/>
		<circle cx="27.475" cy="15.093" r="1.572"/>
	</g>
</g>
<g>
</g>
<g>
</g>
<g>
</g>
<g>
</g>
<g>
</g>
<g>
</g>
<g>
</g>
<g>
</g>
<g>
</g>
<g>
</g>
<g>
</g>
<g>
</g>
<g>
</g>
<g>
</g>
<g>
</g>
</svg>
