<svg width="33" height="35" viewBox="0 0 33 35" fill="none" xmlns="http://www.w3.org/2000/svg">
<path d="M30.0968 34.0792H2.00645C0.898319 34.0792 0 33.2772 0 32.2879V15.1163C0 14.6412 0.211582 14.1857 0.58789 13.8498L14.6331 1.31059C15.0094 0.974219 15.5201 0.785217 16.0526 0.785217C16.5851 0.785217 17.0958 0.974219 17.4722 1.31059L31.5173 13.8498C31.894 14.1853 32.105 14.6413 32.1032 15.1163V32.2879C32.1032 33.2772 31.2049 34.0792 30.0968 34.0792ZM12.0387 21.5399H20.0645V30.4965H28.0903V15.8579L16.0516 5.10997L4.0129 15.8579V30.4965H12.0387V21.5399Z" fill="white"/>
</svg>
