<svg width="36" height="37" viewBox="0 0 36 37" fill="none" xmlns="http://www.w3.org/2000/svg">
<path d="M6 12.7852H3V30.7852C3 32.4397 4.3455 33.7852 6 33.7852H24V30.7852H6V12.7852Z" fill="white"/>
<path d="M30 3.78522H12C11.2044 3.78522 10.4413 4.10129 9.87868 4.6639C9.31607 5.22651 9 5.98957 9 6.78522V24.7852C9 25.5809 9.31607 26.3439 9.87868 26.9065C10.4413 27.4691 11.2044 27.7852 12 27.7852H30C30.7956 27.7852 31.5587 27.4691 32.1213 26.9065C32.6839 26.3439 33 25.5809 33 24.7852V6.78522C33 5.98957 32.6839 5.22651 32.1213 4.6639C31.5587 4.10129 30.7956 3.78522 30 3.78522ZM16.5 21.7852V9.78522L27 15.7852L16.5 21.7852Z" fill="white"/>
</svg>
